<svg width="37" height="26" viewBox="0 0 37 26" fill="none" xmlns="http://www.w3.org/2000/svg">
<g clip-path="url(#clip0_11_1163)">
<path d="M20.9708 0.5H15.1097C14.8505 0.5 14.6098 0.638039 14.4811 0.863752L11.5506 5.93949C11.42 6.16333 11.42 6.44128 11.5506 6.66512L14.4811 11.7409C14.6117 11.9647 14.8505 12.1046 15.1097 12.1046H20.9708C21.2301 12.1046 21.4707 11.9666 21.5994 11.7409L24.53 6.66512C24.6606 6.44128 24.6606 6.16333 24.53 5.93949L21.6013 0.863752C21.4707 0.639904 21.232 0.5 20.9727 0.5H20.9708Z" fill="white"/>
<path d="M20.9708 13.8972H15.1097C14.8505 13.8972 14.6098 14.0353 14.4811 14.261L11.5506 19.3367C11.42 19.5606 11.42 19.8385 11.5506 20.0623L14.4811 25.1381C14.6117 25.3619 14.8505 25.5018 15.1097 25.5018H20.9708C21.2301 25.5018 21.4707 25.3638 21.5994 25.1381L24.53 20.0623C24.6606 19.8385 24.6606 19.5606 24.53 19.3367L21.5994 14.261C21.4689 14.0371 21.2301 13.8972 20.9708 13.8972Z" fill="white"/>
<path d="M9.51719 7.19864H3.65613C3.39684 7.19864 3.1562 7.33668 3.02749 7.56239L0.0969566 12.6363C-0.0336209 12.8601 -0.0336209 13.1381 0.0969566 13.3619L3.02749 18.4376C3.15807 18.6615 3.39684 18.8014 3.65613 18.8014H9.51719C9.77648 18.8014 10.0171 18.6633 10.1458 18.4376L13.0764 13.3619C13.2069 13.1381 13.2069 12.8601 13.0764 12.6363L10.1458 7.56053C10.0153 7.33668 9.77648 7.19678 9.51719 7.19678V7.19864Z" fill="white"/>
<path d="M32.4261 7.19873H26.5651C26.3058 7.19873 26.0651 7.33677 25.9364 7.56248L23.0059 12.6382C22.8753 12.8621 22.8753 13.14 23.0059 13.3639L25.9364 18.4396C26.067 18.6634 26.3058 18.8033 26.5651 18.8033H32.4261C32.6854 18.8033 32.9261 18.6653 33.0548 18.4396L35.9853 13.3639C36.1159 13.14 36.1159 12.8621 35.9853 12.6382L33.0548 7.56248C32.9242 7.33864 32.6854 7.19873 32.4261 7.19873Z" fill="white"/>
</g>
<defs>
<clipPath id="clip0_11_1163">
<rect width="36.0823" height="25" fill="white" transform="translate(0 0.5)"/>
</clipPath>
</defs>
</svg>
